<svg width="13" height="13" viewBox="0 0 13 13" fill="none" xmlns="http://www.w3.org/2000/svg">
<path d="M9.05676 7.71418C10.6485 5.51061 10.1161 2.45931 7.86849 0.899177C5.62084 -0.660956 2.5085 -0.13942 0.917163 2.06452C-0.674177 4.26809 -0.142209 7.31902 2.10582 8.87915C3.71009 9.99268 5.83111 10.0784 7.52322 9.09873L11.1998 12.6816C11.5968 13.0913 12.2573 13.1077 12.6752 12.7185C13.0931 12.3297 13.1098 11.6822 12.7132 11.2725C12.7007 11.2594 12.6885 11.2475 12.6752 11.2352L9.05676 7.71418ZM4.98392 8.0482C3.20778 8.04857 1.76778 6.63793 1.76664 4.89662C1.76626 3.15531 3.20512 1.74355 4.98164 1.7428C6.7555 1.74206 8.19474 3.15047 8.19816 4.88954C8.2012 6.63122 6.7631 8.04522 4.9862 8.0482C4.98544 8.0482 4.98506 8.0482 4.98392 8.0482Z" fill="white"/>
</svg>
