<svg width="16" height="1036" viewBox="0 0 16 1036" fill="none" xmlns="http://www.w3.org/2000/svg">
<ellipse cx="8" cy="18.0837" rx="8" ry="8.50924" fill="#1C5586"/>
<ellipse cx="8" cy="74.4574" rx="8" ry="8.50924" fill="#1C5586"/>
<ellipse cx="8" cy="107.431" rx="8" ry="8.50924" fill="#1C5586"/>
<ellipse cx="8" cy="210.605" rx="8" ry="8.50924" fill="#1C5586"/>
<ellipse cx="8" cy="244.642" rx="8" ry="8.50924" fill="#1C5586"/>
<ellipse cx="8" cy="303.143" rx="8" ry="8.50924" fill="#1C5586"/>
<ellipse cx="8" cy="358.453" rx="8" ry="8.50924" fill="#1C5586"/>
<ellipse cx="8" cy="415.891" rx="8" ry="8.50924" fill="#1C5586"/>
<ellipse cx="8" cy="520.129" rx="8" ry="8.50924" fill="#1C5586"/>
<ellipse cx="8" cy="576.503" rx="8" ry="8.50924" fill="#1C5586"/>
<ellipse cx="8" cy="632.876" rx="8" ry="8.50924" fill="#1C5586"/>
<ellipse cx="8" cy="688.186" rx="8" ry="8.50924" fill="#1C5586"/>
<ellipse cx="8" cy="763.704" rx="8" ry="8.50924" fill="#1C5586"/>
<ellipse cx="8" cy="801.996" rx="8" ry="8.50924" fill="#1C5586"/>
<ellipse cx="8" cy="874.324" rx="8" ry="8.50924" fill="#1C5586"/>
<ellipse cx="8" cy="938.144" rx="8" ry="8.50924" fill="#1C5586"/>
<ellipse cx="8" cy="989.199" rx="8" ry="8.50924" fill="#1C5586"/>
<line x1="8" y1="1036" x2="8.00004" y2="-4.64938e-08" stroke="#1C5586" stroke-width="2"/>
</svg>
