<svg width="20" height="18" viewBox="0 0 20 18" fill="none" xmlns="http://www.w3.org/2000/svg">
<g clip-path="url(#clip0)">
<path d="M13.9794 0H5.32813C2.3902 0 0 2.18958 0 4.88078V12.8055C0 15.4968 2.3902 17.6863 5.32813 17.6863H13.9794C16.9176 17.6863 19.3078 15.4967 19.3078 12.8055V4.88078C19.3079 2.18958 16.9176 0 13.9794 0ZM17.5948 12.8055C17.5948 14.6316 15.973 16.1171 13.9795 16.1171H5.32813C3.33479 16.1172 1.71308 14.6316 1.71308 12.8055V4.88078C1.71308 3.05484 3.33479 1.56922 5.32813 1.56922H13.9794C15.9729 1.56922 17.5947 3.05484 17.5947 4.88078V12.8055H17.5948Z" fill="white"/>
<path d="M9.6539 4.28604C6.91057 4.28604 4.67877 6.33042 4.67877 8.84336C4.67877 11.3562 6.91057 13.4005 9.6539 13.4005C12.3972 13.4005 14.629 11.3562 14.629 8.84336C14.629 6.33042 12.3972 4.28604 9.6539 4.28604ZM9.6539 11.8311C7.85528 11.8311 6.39185 10.4908 6.39185 8.84325C6.39185 7.19558 7.85516 5.85515 9.6539 5.85515C11.4526 5.85515 12.9159 7.19558 12.9159 8.84325C12.9159 10.4908 11.4525 11.8311 9.6539 11.8311Z" fill="white"/>
<path d="M14.8377 2.95544C14.5076 2.95544 14.1834 3.07784 13.9503 3.2923C13.7161 3.50572 13.5814 3.80282 13.5814 4.1062C13.5814 4.40864 13.7162 4.70564 13.9503 4.9201C14.1833 5.13352 14.5076 5.25696 14.8377 5.25696C15.1689 5.25696 15.4921 5.13352 15.7262 4.9201C15.9603 4.70564 16.0939 4.40854 16.0939 4.1062C16.0939 3.80282 15.9603 3.50572 15.7262 3.2923C15.4932 3.07784 15.1689 2.95544 14.8377 2.95544Z" fill="white"/>
</g>
<defs>
<clipPath id="clip0">
<rect width="19.3079" height="17.6864" fill="white"/>
</clipPath>
</defs>
</svg>
