<svg width="19" height="18" viewBox="0 0 19 18" fill="none" xmlns="http://www.w3.org/2000/svg">
<g clip-path="url(#clip0)">
<path d="M11.5735 1.68787V5.57625C11.5735 5.91206 11.6009 6.15867 11.6557 6.31649C11.7448 6.56018 11.9472 6.68167 12.2625 6.68167C12.6051 6.68167 12.9583 6.47819 13.3216 6.06988V6.61267H14.2577V1.68787H13.3218V5.44799C13.1161 5.73134 12.9209 5.87243 12.7356 5.87243C12.6122 5.87243 12.5401 5.80031 12.5197 5.65535C12.5128 5.64233 12.5094 5.5269 12.5094 5.31001V1.68787H11.5735Z" fill="white"/>
<path d="M9.43438 6.68166C9.90744 6.68166 10.2708 6.51393 10.5245 6.1785C10.7165 5.93516 10.8125 5.5467 10.8125 5.01382V3.28669C10.8125 2.76042 10.7165 2.37564 10.5245 2.13211C10.2708 1.7963 9.90747 1.62857 9.43438 1.62857C8.97488 1.62857 8.61499 1.7963 8.35436 2.13211C8.16237 2.37583 8.06638 2.76061 8.06638 3.28669V5.01382C8.06638 5.54048 8.16237 5.92878 8.35436 6.1785C8.61479 6.51393 8.97485 6.68166 9.43438 6.68166ZM8.99205 3.1089C8.99205 2.65509 9.13951 2.42813 9.43434 2.42813C9.72901 2.42813 9.87663 2.65512 9.87663 3.1089V5.18155C9.87663 5.64235 9.72901 5.87245 9.43434 5.87245C9.13947 5.87245 8.99205 5.64235 8.99205 5.18155V3.1089Z" fill="white"/>
<path d="M6.81182 6.61265V3.93811L8.05626 0H7.00722L6.30795 2.59582L5.57747 0H4.48734C4.67933 0.55292 4.90209 1.16821 5.15583 1.84548C5.47804 2.75383 5.68704 3.45111 5.78323 3.93814V6.61249H6.81179V6.61265H6.81182Z" fill="white"/>
<path d="M16.4124 8.16213C16.1072 7.89919 15.7558 7.74467 15.3583 7.69825C14.0967 7.56688 12.194 7.50079 9.65045 7.50079C7.10668 7.50079 5.20747 7.56669 3.95271 7.69825C3.54808 7.74451 3.1951 7.89919 2.89335 8.16213C2.5916 8.42585 2.39275 8.75118 2.29676 9.13945C2.11833 9.90281 2.02942 11.0539 2.02942 12.5939C2.02942 14.1598 2.11853 15.3111 2.29676 16.0483C2.38584 16.4362 2.58289 16.7619 2.88809 17.0252C3.19308 17.2886 3.54444 17.4398 3.94216 17.4794C5.20364 17.6174 7.10625 17.6864 9.65025 17.6864C12.194 17.6864 14.0967 17.6174 15.3581 17.4794C15.7557 17.4398 16.1054 17.2886 16.4071 17.0252C16.7087 16.7619 16.9076 16.4362 17.0038 16.0483C17.182 15.2849 17.2711 14.1334 17.2711 12.5939C17.2711 11.0279 17.182 9.87658 17.0038 9.13945C16.9144 8.75118 16.7174 8.42585 16.4124 8.16213ZM6.37981 10.1361H5.27935V15.7519H4.25096V10.1361H3.17118V9.20846H6.38004V10.1361H6.37981ZM9.15651 15.7519H8.24112V15.2186C7.87091 15.62 7.5212 15.8209 7.19208 15.8209C6.87657 15.8209 6.67789 15.6991 6.59549 15.4558C6.5406 15.2977 6.51326 15.058 6.51326 14.7351V10.8761H7.42865V14.4689C7.42865 14.6794 7.43209 14.7946 7.43897 14.8142C7.45962 14.9522 7.53153 15.0212 7.65506 15.0212C7.84016 15.0212 8.0356 14.8833 8.24136 14.6067V10.8761H9.15671V15.7519H9.15651ZM12.6533 14.2913C12.6533 14.7717 12.6225 15.1005 12.5608 15.2781C12.4441 15.6398 12.2009 15.8209 11.8305 15.8209C11.5014 15.8209 11.1826 15.6398 10.874 15.2781V15.7519H9.95866V9.20846H10.874V11.3501C11.1687 10.995 11.4876 10.8172 11.8305 10.8172C12.2007 10.8172 12.4441 11.0014 12.5608 11.3697C12.6225 11.5409 12.6533 11.8666 12.6533 12.347V14.2913ZM16.1295 13.482H14.2886V14.3406C14.2886 14.7948 14.4462 15.0214 14.7617 15.0214C14.9879 15.0214 15.125 14.903 15.173 14.6663C15.1866 14.6004 15.1937 14.3999 15.1937 14.0641H16.1295V14.1925C16.1295 14.5151 16.1226 14.7056 16.1088 14.765C16.0882 14.9429 16.0163 15.1201 15.893 15.2979C15.6461 15.6464 15.2759 15.8211 14.7822 15.8211C14.3091 15.8211 13.9387 15.6534 13.6714 15.3176C13.4725 15.0743 13.3731 14.6929 13.3731 14.1729V12.4654C13.3731 11.9457 13.4691 11.564 13.6611 11.3203C13.9284 10.9849 14.2951 10.8172 14.7615 10.8172C15.2208 10.8172 15.5843 10.9849 15.8516 11.3203C16.0367 11.564 16.1293 11.9457 16.1293 12.4654V13.482H16.1295Z" fill="white"/>
<path d="M14.7514 11.6164C14.4428 11.6164 14.2887 11.8403 14.2887 12.2876V12.7418H15.2143V12.2876C15.2141 11.8404 15.06 11.6164 14.7514 11.6164Z" fill="white"/>
<path d="M11.337 11.6164C11.1792 11.6164 11.0249 11.6889 10.8742 11.8339V14.8044C11.0249 14.9493 11.1792 15.0214 11.337 15.0214C11.6043 15.0214 11.7382 14.8012 11.7382 14.3603V12.2779C11.7379 11.8369 11.6043 11.6164 11.337 11.6164Z" fill="white"/>
</g>
<defs>
<clipPath id="clip0">
<rect width="18.4303" height="17.6864" fill="white" transform="translate(0.43512)"/>
</clipPath>
</defs>
</svg>
